# Blender v2.93.0 OBJ File: ''
# www.blender.org
mtllib garagedoor.mtl
o GarageDoor_Wall.004
v 3.163014 0.002125 -2.805975
v 2.576735 0.016075 -2.805975
v 1.723275 0.036383 -2.805975
v 1.718405 -0.118276 -2.805975
v 3.002195 -0.148822 -2.805975
v 3.158144 -0.152534 -2.805975
v 0.005947 0.077246 2.805976
v 0.005947 0.077246 2.996730
v 0.175505 0.073211 2.996730
v 0.175505 0.073211 2.805976
v 0.175503 0.073212 -2.805974
v 0.175505 0.073213 -0.124523
v 0.170635 -0.081449 -0.124523
v 0.170634 -0.081447 -2.805974
v 3.007066 0.005835 2.996730
v 1.723276 0.036382 2.996730
v 1.718406 -0.118277 2.996730
v 3.002196 -0.148825 2.996730
v 0.005946 0.077247 -3.001903
v 0.005946 0.077247 -2.805974
v 0.175503 0.073212 -3.001903
v 0.170634 -0.081447 -3.001903
v 1.468396 -0.112327 -3.001903
v 1.468396 -0.112327 -2.805975
v 0.001078 -0.077414 2.805976
v 0.170635 -0.081448 2.805976
v 0.170635 -0.081448 2.996730
v 0.001078 -0.077414 2.996730
v 0.001077 -0.077415 0.124523
v 0.170635 -0.081449 0.124523
v 3.007065 0.005836 -3.001904
v 3.163014 0.002125 -3.001904
v 3.158144 -0.152534 -3.001904
v 3.002195 -0.148823 -3.001904
v 0.001077 -0.077413 -3.001903
v 0.001077 -0.077413 -2.805974
v 1.723276 0.036382 2.805976
v 3.163015 0.002124 2.996730
v 3.163015 0.002124 2.805976
v 1.473266 0.042332 -2.805975
v 1.473266 0.042332 -3.001903
v 0.001077 -0.077414 -0.124523
v 3.158145 -0.152535 2.996730
v 3.158145 -0.152535 2.805976
v 0.175505 0.073213 0.124523
v 0.005947 0.077248 0.124523
v 1.468397 -0.112328 2.805976
v 1.468398 -0.112328 2.996730
v 0.005947 0.077248 -0.124523
v 1.473267 0.042331 2.996730
v 1.473267 0.042331 2.805976
v 3.002196 -0.148825 2.805976
v 1.718406 -0.118277 2.805976
v 1.723275 0.036383 -3.001903
v 1.473267 0.042331 0.124523
v 1.468397 -0.112329 0.124523
v 1.718406 -0.118278 0.124523
v 1.723275 0.036384 -0.124523
v 1.718405 -0.118278 -0.124523
v 1.718405 -0.118276 -3.001903
v 1.468397 -0.112329 -0.124523
v 1.723275 0.036384 0.124523
v 1.473267 0.042331 -0.124523
v 3.002195 -0.148824 0.123869
v 3.002195 -0.148823 -0.124523
v 3.007065 0.005836 0.123869
v 3.007066 0.005834 2.805976
v 3.158144 -0.152534 -0.124523
v 3.158144 -0.152534 0.123869
v 3.007065 0.005837 -2.805975
v 3.007065 0.005836 -0.124523
v 3.163014 0.002126 -0.123872
v 3.163014 0.002125 0.123869
v 0.174150 0.030225 -2.805974
v 3.061383 -0.038476 -2.805975
v 3.061384 -0.038477 2.869363
v 0.174151 0.030224 2.869364
v 3.169846 0.008628 -2.802648
v 3.164557 -0.159353 -2.802648
v 2.999287 -0.156770 -2.800641
v 1.721116 -0.127384 -2.802967
v 1.726555 0.045349 -2.802967
v 2.576957 0.023140 -2.798919
v -0.000854 0.084477 2.805976
v 0.178785 0.082177 2.802967
v 0.175728 0.080275 3.003789
v 0.000394 0.083151 3.002492
v 0.178784 0.082178 -2.802966
v 0.173345 -0.090555 -2.802966
v 0.173346 -0.090555 -0.127531
v 0.178785 0.082176 -0.127531
v 3.007288 0.012899 3.003788
v 3.001973 -0.155889 3.003788
v 1.718184 -0.125341 3.003788
v 1.723498 0.043447 3.003788
v 0.000393 0.083152 -3.007665
v 0.175726 0.080276 -3.008959
v -0.000856 0.084478 -2.805974
v 0.170411 -0.088511 -3.008959
v 1.465117 -0.121292 -2.802967
v 1.468174 -0.119391 -3.008960
v -0.006168 -0.084311 2.805976
v -0.004839 -0.083046 3.002492
v 0.170413 -0.088513 3.003789
v 0.173346 -0.090556 2.802967
v 0.173346 -0.090555 0.127533
v -0.006169 -0.084312 0.124523
v 3.007287 0.012900 -3.008960
v 3.001972 -0.155888 -3.008959
v 3.163698 -0.158439 -3.007666
v 3.168931 0.007757 -3.007666
v -0.004840 -0.083045 -3.007665
v -0.006171 -0.084310 -2.805974
v 1.726556 0.045348 2.802967
v 3.169847 0.008627 2.802649
v 3.168932 0.007756 3.002492
v 1.473489 0.049397 -3.008960
v 1.470556 0.051441 -2.802967
v -0.006169 -0.084311 -0.124523
v 3.164558 -0.159354 2.802649
v 3.163699 -0.158440 3.002492
v -0.000854 0.084479 0.124523
v 0.178785 0.082176 0.127533
v 1.468175 -0.119392 3.003788
v 1.465118 -0.121293 2.802967
v -0.000854 0.084479 -0.124523
v 1.470556 0.051440 2.802967
v 1.473490 0.049395 3.003788
v 1.721117 -0.127385 2.802967
v 2.999289 -0.156772 2.800642
v 1.723497 0.043448 -3.008960
v 1.469468 0.050585 0.128596
v 1.465117 -0.121294 0.127532
v 1.721118 -0.127383 0.127532
v 1.721116 -0.127384 -0.127531
v 1.727587 0.044445 -0.128597
v 1.718183 -0.125340 -3.008960
v 1.465117 -0.121294 -0.127531
v 1.727589 0.044444 0.128596
v 1.469468 0.050586 -0.128597
v 2.998918 -0.157789 0.126880
v 2.998915 -0.157789 -0.127531
v 3.004356 0.014945 0.126880
v 3.000264 0.013065 2.805976
v 3.164946 -0.159765 -0.124523
v 3.164946 -0.159765 0.123869
v 3.000262 0.013068 -2.805975
v 3.170261 0.009022 -0.123872
v 3.004354 0.014945 -0.127531
v 3.170261 0.009022 0.123869
v 0.173835 0.020234 -2.805974
v 0.173836 0.020232 2.869364
v 3.061070 -0.048469 2.869363
v 3.061069 -0.048467 -2.805975
vt 0.369443 0.501015
vt 0.374050 0.498356
vt 0.374050 0.493036
vt 0.369443 0.490377
vt 0.364837 0.493036
vt 0.364837 0.498356
vt 0.363803 0.521699
vt 0.373466 0.521699
vt 0.373466 0.531362
vt 0.363803 0.531362
vt 0.364124 0.490377
vt 0.374763 0.490377
vt 0.374763 0.501015
vt 0.364124 0.501015
vt 0.368634 0.521699
vt 0.373466 0.521699
vt 0.373466 0.531362
vt 0.368634 0.531362
vt 0.363803 0.521699
vt 0.373466 0.521699
vt 0.373466 0.531362
vt 0.363803 0.531362
vt 0.363803 0.521699
vt 0.373466 0.521699
vt 0.373466 0.531362
vt 0.363803 0.531362
vt 0.363803 0.521699
vt 0.373466 0.521699
vt 0.373466 0.531362
vt 0.363803 0.531362
vt 0.363803 0.521699
vt 0.373466 0.521699
vt 0.373466 0.531362
vt 0.363803 0.531362
vt 0.368634 0.521699
vt 0.373466 0.521699
vt 0.373466 0.531362
vt 0.368634 0.531362
vt 0.363803 0.521699
vt 0.373466 0.521699
vt 0.373466 0.531362
vt 0.363803 0.531362
vt 0.363803 0.521699
vt 0.373466 0.526530
vt 0.373466 0.531362
vt 0.363803 0.531362
vt 0.363803 0.521699
vt 0.373466 0.521699
vt 0.373466 0.531362
vt 0.363803 0.521699
vt 0.373466 0.521699
vt 0.373466 0.531362
vt 0.363803 0.531362
vt 0.363803 0.521699
vt 0.373466 0.521699
vt 0.373466 0.531362
vt 0.363803 0.521699
vt 0.373466 0.521699
vt 0.373466 0.531362
vt 0.363803 0.531362
vt 0.363803 0.521699
vt 0.373466 0.521699
vt 0.373466 0.531362
vt 0.363803 0.531362
vt 0.373466 0.521699
vt 0.373466 0.531362
vt 0.363803 0.531362
vt 0.363803 0.521699
vt 0.373466 0.521699
vt 0.373466 0.531362
vt 0.363803 0.521699
vt 0.373466 0.531362
vt 0.363803 0.531362
vt 0.368634 0.521699
vt 0.373466 0.521699
vt 0.373466 0.531362
vt 0.368635 0.531362
vt 0.373466 0.521699
vt 0.373466 0.531362
vt 0.363803 0.521699
vt 0.373466 0.521699
vt 0.363803 0.531362
vt 0.363803 0.521699
vt 0.373466 0.531362
vt 0.363803 0.531362
vt 0.364124 0.490377
vt 0.374763 0.490377
vt 0.374763 0.501015
vt 0.364124 0.501015
vt 0.373466 0.521699
vt 0.373466 0.531362
vt 0.363803 0.531362
vt 0.373466 0.521699
vt 0.363803 0.531362
vt 0.369443 0.501015
vt 0.374502 0.497340
vt 0.372570 0.491393
vt 0.366317 0.491393
vt 0.364384 0.497340
vt 0.364124 0.490377
vt 0.374763 0.490377
vt 0.374763 0.501015
vt 0.364124 0.501015
vt 0.368634 0.521699
vt 0.373466 0.521699
vt 0.363803 0.521699
vt 0.363803 0.531362
vt 0.364124 0.490377
vt 0.374763 0.490377
vt 0.374763 0.501015
vt 0.364124 0.501015
vt 0.363803 0.521699
vt 0.373466 0.521699
vt 0.373466 0.526530
vt 0.373466 0.531362
vt 0.363803 0.531362
vt 0.363803 0.526530
vt 0.373466 0.521699
vt 0.373466 0.531362
vt 0.363803 0.531362
vt 0.363803 0.521699
vt 0.363803 0.531362
vt 0.364124 0.490377
vt 0.374763 0.490377
vt 0.374763 0.501015
vt 0.364124 0.501015
vt 0.363803 0.521699
vt 0.373466 0.521699
vt 0.373466 0.531362
vt 0.363803 0.531362
vt 0.373466 0.521699
vt 0.363803 0.531362
vt 0.363803 0.521699
vt 0.373466 0.521699
vt 0.373466 0.531362
vt 0.363803 0.531362
vt 0.373466 0.521699
vt 0.363803 0.531362
vt 0.363803 0.521699
vt 0.373466 0.521699
vt 0.363803 0.521699
vt 0.373466 0.521699
vt 0.373466 0.531362
vt 0.363803 0.531362
vt 0.364124 0.490377
vt 0.374763 0.490377
vt 0.374763 0.501015
vt 0.364124 0.501015
vt 0.373466 0.521699
vt 0.363803 0.521699
vt 0.373466 0.521699
vt 0.363803 0.531362
vt 0.363803 0.521699
vt 0.373466 0.521699
vt 0.373466 0.531362
vt 0.363803 0.531362
vt 0.363803 0.531362
vt 0.364124 0.490377
vt 0.374763 0.490377
vt 0.374763 0.501015
vt 0.364124 0.501015
vt 0.363803 0.521699
vt 0.373466 0.531362
vt 0.363803 0.531362
vt 0.364124 0.490377
vt 0.374763 0.490377
vt 0.374763 0.501015
vt 0.364124 0.501015
vt 0.363803 0.521699
vt 0.373466 0.521699
vt 0.373466 0.531362
vt 0.363803 0.531362
vt 0.373466 0.521699
vt 0.373466 0.531362
vt 0.364124 0.490377
vt 0.374763 0.490377
vt 0.374763 0.501015
vt 0.364124 0.501015
vt 0.364124 0.490377
vt 0.364124 0.501015
vt 0.365162 0.521699
vt 0.368634 0.531362
vt 0.364124 0.490377
vt 0.374763 0.490377
vt 0.374763 0.501015
vt 0.364124 0.490377
vt 0.374763 0.501015
vt 0.364124 0.501015
vt 0.363803 0.521699
vt 0.373466 0.521699
vt 0.373466 0.531362
vt 0.363803 0.531362
vt 0.363803 0.521699
vt 0.373466 0.521699
vt 0.373466 0.531362
vt 0.363803 0.531362
vt 0.363803 0.521699
vt 0.373466 0.521699
vt 0.373466 0.531362
vt 0.363803 0.531362
vt 0.373466 0.521699
vt 0.363803 0.521699
vt 0.364124 0.490377
vt 0.374763 0.490377
vt 0.374763 0.501015
vt 0.364124 0.501015
vt 0.363803 0.521699
vt 0.373466 0.521699
vt 0.363803 0.531362
vt 0.363803 0.531362
vt 0.363803 0.531362
vt 0.363803 0.521699
vt 0.363803 0.531362
vt 0.363803 0.531362
vt 0.363803 0.531362
vt 0.373466 0.531337
vt 0.363803 0.531337
vt 0.363803 0.521724
vt 0.373466 0.521724
vt 0.373466 0.531337
vt 0.363803 0.531337
vt 0.363803 0.521724
vt 0.373466 0.521724
vt 0.373466 0.531337
vt 0.363803 0.531337
vt 0.364124 0.490377
vt 0.374763 0.490377
vt 0.374763 0.501015
vt 0.364124 0.501015
vt 0.331535 0.520914
vt 0.344225 0.520914
vt 0.344225 0.533604
vt 0.331535 0.533604
vt 0.369443 0.501015
vt 0.364837 0.498356
vt 0.364837 0.493036
vt 0.369443 0.490377
vt 0.374050 0.493036
vt 0.374050 0.498356
vt 0.363803 0.521699
vt 0.363803 0.531362
vt 0.373466 0.531362
vt 0.373466 0.521699
vt 0.364124 0.490377
vt 0.364124 0.501015
vt 0.374763 0.501015
vt 0.374763 0.490377
vt 0.368634 0.521699
vt 0.368634 0.531362
vt 0.373466 0.531362
vt 0.373466 0.521699
vt 0.363803 0.521699
vt 0.363803 0.531362
vt 0.373466 0.531362
vt 0.373466 0.521699
vt 0.363803 0.521699
vt 0.363803 0.531362
vt 0.373466 0.531362
vt 0.373466 0.521699
vt 0.363803 0.521699
vt 0.363803 0.531362
vt 0.373466 0.531362
vt 0.373466 0.521699
vt 0.363803 0.521699
vt 0.363803 0.531362
vt 0.373466 0.531362
vt 0.373466 0.521699
vt 0.368634 0.521699
vt 0.368634 0.531362
vt 0.373466 0.531362
vt 0.373466 0.521699
vt 0.363803 0.521699
vt 0.363803 0.531362
vt 0.373466 0.531362
vt 0.373466 0.521699
vt 0.363803 0.521699
vt 0.363803 0.531362
vt 0.373466 0.531362
vt 0.373466 0.526530
vt 0.363803 0.521699
vt 0.373466 0.531362
vt 0.373466 0.521699
vt 0.363803 0.521699
vt 0.363803 0.531362
vt 0.373466 0.531362
vt 0.373466 0.521699
vt 0.363803 0.521699
vt 0.373466 0.531362
vt 0.373466 0.521699
vt 0.363803 0.521699
vt 0.363803 0.531362
vt 0.373466 0.531362
vt 0.373466 0.521699
vt 0.363803 0.521699
vt 0.363803 0.531362
vt 0.373466 0.531362
vt 0.373466 0.521699
vt 0.363803 0.531362
vt 0.373466 0.531362
vt 0.373466 0.521699
vt 0.363803 0.521699
vt 0.373466 0.531362
vt 0.373466 0.521699
vt 0.363803 0.521699
vt 0.363803 0.531362
vt 0.373466 0.531362
vt 0.368634 0.521699
vt 0.368635 0.531362
vt 0.373466 0.531362
vt 0.373466 0.521699
vt 0.373466 0.531362
vt 0.373466 0.521699
vt 0.363803 0.521699
vt 0.363803 0.531362
vt 0.373466 0.521699
vt 0.363803 0.521699
vt 0.363803 0.531362
vt 0.373466 0.531362
vt 0.364124 0.490377
vt 0.364124 0.501015
vt 0.374763 0.501015
vt 0.374763 0.490377
vt 0.363803 0.531362
vt 0.373466 0.531362
vt 0.373466 0.521699
vt 0.363803 0.531362
vt 0.373466 0.521699
vt 0.369443 0.501015
vt 0.364384 0.497340
vt 0.366317 0.491393
vt 0.372570 0.491393
vt 0.374502 0.497340
vt 0.364124 0.490377
vt 0.364124 0.501015
vt 0.374763 0.501015
vt 0.374763 0.490377
vt 0.368634 0.521699
vt 0.373466 0.521699
vt 0.363803 0.521699
vt 0.363803 0.531362
vt 0.364124 0.490377
vt 0.364124 0.501015
vt 0.374763 0.501015
vt 0.374763 0.490377
vt 0.363803 0.521699
vt 0.363803 0.526530
vt 0.363803 0.531362
vt 0.373466 0.531362
vt 0.373466 0.526530
vt 0.373466 0.521699
vt 0.363803 0.531362
vt 0.373466 0.531362
vt 0.373466 0.521699
vt 0.364124 0.490377
vt 0.364124 0.501015
vt 0.374763 0.501015
vt 0.374763 0.490377
vt 0.363803 0.521699
vt 0.363803 0.531362
vt 0.373466 0.531362
vt 0.373466 0.521699
vt 0.363803 0.531362
vt 0.373466 0.521699
vt 0.363803 0.521699
vt 0.363803 0.531362
vt 0.373466 0.531362
vt 0.373466 0.521699
vt 0.363803 0.531362
vt 0.373466 0.521699
vt 0.363803 0.521699
vt 0.373466 0.521699
vt 0.363803 0.521699
vt 0.363803 0.531362
vt 0.373466 0.531362
vt 0.373466 0.521699
vt 0.364124 0.490377
vt 0.364124 0.501015
vt 0.374763 0.501015
vt 0.374763 0.490377
vt 0.373466 0.521699
vt 0.363803 0.521699
vt 0.363803 0.531362
vt 0.373466 0.521699
vt 0.363803 0.521699
vt 0.363803 0.531362
vt 0.373466 0.531362
vt 0.373466 0.521699
vt 0.363803 0.521699
vt 0.363803 0.531362
vt 0.364124 0.490377
vt 0.364124 0.501015
vt 0.374763 0.501015
vt 0.374763 0.490377
vt 0.363803 0.521699
vt 0.363803 0.531362
vt 0.373466 0.531362
vt 0.364124 0.490377
vt 0.364124 0.501015
vt 0.374763 0.501015
vt 0.374763 0.490377
vt 0.363803 0.521699
vt 0.363803 0.531362
vt 0.373466 0.531362
vt 0.373466 0.521699
vt 0.373466 0.531362
vt 0.373466 0.521699
vt 0.364124 0.490377
vt 0.364124 0.501015
vt 0.374763 0.501015
vt 0.374763 0.490377
vt 0.364124 0.490377
vt 0.364124 0.501015
vt 0.365162 0.521699
vt 0.368634 0.531362
vt 0.364124 0.490377
vt 0.374763 0.501015
vt 0.374763 0.490377
vt 0.364124 0.490377
vt 0.364124 0.501015
vt 0.374763 0.501015
vt 0.363803 0.521699
vt 0.363803 0.531362
vt 0.373466 0.531362
vt 0.373466 0.521699
vt 0.363803 0.521699
vt 0.363803 0.531362
vt 0.373466 0.531362
vt 0.373466 0.521699
vt 0.363803 0.521699
vt 0.363803 0.531362
vt 0.373466 0.531362
vt 0.373466 0.521699
vt 0.369283 0.524302
vt 0.369283 0.524302
vt 0.369283 0.524302
vt 0.369283 0.524302
vt 0.364124 0.490377
vt 0.364124 0.501015
vt 0.374763 0.501015
vt 0.374763 0.490377
vt 0.363803 0.521699
vt 0.363803 0.531362
vt 0.373466 0.521699
vt 0.363803 0.521699
vt 0.363803 0.531362
vt 0.373466 0.521699
vt 0.363803 0.531362
vt 0.363803 0.521699
vt 0.363803 0.531362
vt 0.363803 0.531362
vt 0.363803 0.531362
vt 0.373466 0.531337
vt 0.373466 0.521724
vt 0.363803 0.521724
vt 0.363803 0.531337
vt 0.373466 0.531337
vt 0.373466 0.521724
vt 0.363803 0.521724
vt 0.363803 0.531337
vt 0.373466 0.531337
vt 0.363803 0.531337
vt 0.364124 0.490377
vt 0.364124 0.501015
vt 0.374763 0.501015
vt 0.374763 0.490377
vt 0.331535 0.520914
vt 0.331535 0.533604
vt 0.344225 0.533604
vt 0.344225 0.520914
vt 0.369283 0.524140
vt 0.369283 0.524140
vt 0.369283 0.524140
vt 0.369283 0.524140
vt 0.369283 0.525813
vt 0.369283 0.525813
vt 0.369283 0.525813
vt 0.369283 0.525813
vn 0.0000 0.0000 1.0000
vn 0.0238 0.9997 0.0000
vn 0.9995 -0.0315 -0.0000
vn -0.0238 -0.9997 -0.0000
vn -0.0000 0.0000 -1.0000
vn -0.9995 0.0315 0.0000
vn 0.0005 -0.0000 1.0000
vn 0.0004 0.0053 -1.0000
vn -0.0137 -0.9999 -0.0041
vn -0.0171 -0.9998 -0.0060
vn -0.0192 -0.9998 -0.0090
vn -0.0146 -0.9999 -0.0082
vn -0.0040 0.0001 -1.0000
vn -0.0146 -0.9999 0.0080
vn -0.0192 -0.9998 0.0088
vn -0.0171 -0.9998 0.0058
vn -0.0137 -0.9999 0.0040
vn 0.0284 0.9996 0.0088
vn 0.0305 0.9995 0.0058
vn 0.0238 0.9997 0.0064
vn 0.0238 0.9997 0.0096
vn 0.0339 0.9994 -0.0041
vn 0.0330 0.9994 -0.0082
vn 0.0284 0.9996 -0.0090
vn 0.0305 0.9995 -0.0060
vn 0.0311 0.9995 0.0000
vn 0.0348 0.9994 -0.0000
vn -0.0040 0.0001 1.0000
vn -0.0080 0.0003 1.0000
vn 0.0330 0.9994 0.0080
vn 0.0339 0.9994 0.0040
vn -0.0242 -0.9997 -0.0046
vn -0.0251 -0.9997 -0.0043
vn -0.0244 -0.9997 -0.0071
vn 0.9995 -0.0315 -0.0066
vn 0.9995 -0.0315 -0.0033
vn -0.0238 -0.9997 0.0096
vn -0.0238 -0.9997 0.0063
vn -0.9995 0.0315 -0.0044
vn -0.0128 -0.9999 -0.0000
vn -0.0167 -0.9999 -0.0000
vn 0.0074 -0.0002 1.0000
vn 0.0037 -0.0001 1.0000
vn 0.9995 -0.0315 0.0032
vn 0.9995 -0.0315 0.0064
vn 0.0037 -0.0001 -1.0000
vn 0.0074 -0.0002 -1.0000
vn 0.0195 0.9998 0.0057
vn 0.0196 0.9998 0.0057
vn 0.0157 0.9999 0.0044
vn 0.0238 0.9997 -0.0098
vn 0.0238 0.9997 -0.0066
vn -0.9995 0.0315 0.0043
vn -0.0166 -0.9999 -0.0000
vn -0.0238 -0.9997 -0.0064
vn -0.0238 -0.9997 -0.0098
vn 0.0001 -0.0060 1.0000
vn 0.0196 0.9998 -0.0059
vn 0.0195 0.9998 -0.0059
vn 0.0157 0.9999 -0.0045
vn -0.0244 -0.9997 0.0062
vn -0.0251 -0.9997 0.0028
vn -0.0242 -0.9997 0.0040
vn 0.0005 0.0031 -1.0000
vn 0.0237 0.9997 -0.0057
vn 0.0236 0.9997 -0.0085
vn -0.9994 0.0345 0.0002
vn 0.0236 0.9997 0.0083
vn 0.0237 0.9997 0.0055
vn 0.9996 -0.0284 -0.0002
vn -0.9994 0.0345 -0.0002
vn 0.9996 -0.0284 0.0002
vn 0.0005 0.0031 1.0000
vn 0.0165 0.9999 -0.0001
vn 0.0165 0.9999 0.0001
vn -0.0009 0.0031 -1.0000
vn 0.9998 -0.0187 0.0007
vn 0.0138 0.9999 0.0003
vn 0.0128 0.9999 0.0001
vn 0.0138 0.9999 -0.0003
vn 0.0128 0.9999 -0.0001
vn -0.0309 -0.9995 0.0004
vn -0.0333 -0.9994 0.0002
vn -0.0299 -0.9996 0.0002
vn -0.0299 -0.9996 -0.0002
vn -0.0333 -0.9994 -0.0002
vn -0.0309 -0.9995 -0.0005
vn 0.9998 -0.0187 -0.0007
vn -0.9995 0.0315 0.0002
vn -0.9995 0.0315 0.0001
vn -0.9995 0.0315 -0.0001
vn -0.0080 0.0003 -1.0000
vn -0.0003 0.0031 1.0000
vn -0.0238 -0.9997 -0.0003
vn -0.0238 -0.9997 0.0003
vn -0.0231 -0.9997 -0.0000
vn -0.0245 -0.9997 -0.0000
usemtl WallMat
s 1
f 1/1/1 2/2/1 3/3/1 4/4/1 5/5/1 6/6/1
f 7/7/2 8/8/2 9/9/2 10/10/2
f 11/11/3 12/12/3 13/13/3 14/14/3
f 15/15/1 16/16/1 17/17/1 18/18/1
f 19/19/2 20/20/2 11/21/2 21/22/2
f 22/23/4 23/24/4 24/25/4 14/26/4
f 25/27/4 26/28/4 27/29/4 28/30/4
f 26/31/4 25/32/4 29/33/4 30/34/4
f 31/35/5 32/36/5 33/37/5 34/38/5
f 35/39/4 22/40/4 14/41/4 36/42/4
f 37/43/2 16/16/2 15/44/2 38/45/2 39/46/2
f 8/47/6 7/48/6 25/49/6 28/30/6
f 21/50/2 11/51/2 40/52/2 41/53/2
f 13/54/4 42/55/4 36/56/4 14/26/4
f 39/57/3 38/58/3 43/59/3 44/60/3
f 10/61/2 45/62/2 46/63/2 7/64/2
f 19/19/5 21/65/5 22/66/5 35/67/5
f 20/68/6 19/69/6 35/70/6 36/42/6
f 9/71/1 8/8/1 28/72/1 27/73/1
f 34/74/4 33/75/4 6/76/4 5/77/4
f 26/31/4 47/78/4 48/79/4 27/73/4
f 32/80/3 1/81/3 6/76/3 33/82/3
f 12/83/2 11/51/2 20/84/2 49/85/2
f 45/86/3 10/87/3 26/88/3 30/89/3
f 10/61/2 9/90/2 50/91/2 51/92/2
f 7/7/6 46/93/6 29/33/6 25/94/6
f 37/95/5 39/96/5 44/97/5 52/98/5 53/99/5
f 10/100/5 51/101/5 47/102/5 26/103/5
f 52/104/4 44/105/4 43/59/4 18/18/4
f 50/106/1 9/90/1 27/29/1 48/107/1
f 40/108/1 11/109/1 14/110/1 24/111/1
f 54/112/2 3/113/2 2/114/2 1/115/2 32/116/2 31/117/2
f 21/50/5 41/118/5 23/119/5 22/120/5
f 49/121/6 42/55/6 29/33/6 46/122/6
f 55/123/1 45/124/1 30/125/1 56/126/1
f 42/127/4 13/128/4 30/129/4 29/130/4
f 12/83/2 49/131/2 46/63/2 45/132/2
f 56/133/4 57/134/4 53/135/4 47/136/4
f 50/106/1 48/137/1 17/17/1 16/138/1
f 53/139/4 17/140/4 48/79/4 47/136/4
f 16/141/2 37/142/2 51/143/2 50/144/2
f 3/145/3 58/146/3 59/147/3 4/148/3
f 54/112/5 60/149/5 23/119/5 41/53/5
f 60/150/4 4/151/4 24/25/4 23/152/4
f 3/153/2 54/154/2 41/155/2 40/156/2
f 49/121/6 20/20/6 36/56/6 42/157/6
f 56/158/6 47/159/6 51/160/6 55/161/6
f 24/162/4 4/151/4 59/163/4 61/164/4
f 62/165/3 37/166/3 53/167/3 57/168/3
f 57/169/4 56/170/4 61/171/4 59/172/4
f 13/54/4 61/173/4 56/174/4 30/34/4
f 24/175/6 61/176/6 63/177/6 40/178/6
f 13/179/5 12/12/5 63/177/5 61/180/5
f 64/181/4 57/134/4 59/163/4 65/182/4
f 64/183/7 66/184/7 62/185/7 57/168/7
f 67/186/6 66/184/6 64/187/6 52/188/6
f 5/189/4 6/190/4 68/191/4 65/192/4
f 64/193/4 69/194/4 44/195/4 52/196/4
f 70/197/2 71/198/2 72/199/2 1/200/2
f 66/184/2 67/186/2 39/201/2 73/202/2
f 71/203/6 70/204/6 5/205/6 65/206/6
f 1/207/3 72/208/3 68/191/3 6/209/3
f 73/202/3 39/201/3 44/195/3 69/210/3
f 53/139/4 52/104/4 18/18/4 17/211/4
f 38/212/1 15/15/1 18/18/1 43/213/1
f 60/150/4 34/74/4 5/77/4 4/214/4
f 54/112/5 31/35/5 34/38/5 60/215/5
f 72/216/2 71/217/2 66/218/2 73/219/2
f 65/220/4 68/221/4 69/222/4 64/223/4
f 68/224/3 72/225/3 73/202/3 69/194/3
f 58/226/5 71/227/5 65/228/5 59/229/5
f 74/230/4 75/231/4 76/232/4 77/233/4
f 3/145/2 40/178/2 63/177/2 58/146/2
f 37/166/2 62/165/2 55/161/2 51/160/2
f 71/217/2 58/226/2 62/185/2 66/218/2
f 55/123/2 63/177/2 12/12/2 45/132/2
f 78/234/8 79/235/8 80/236/8 81/237/8 82/238/8 83/239/8
f 84/240/9 85/241/10 86/242/11 87/243/12
f 88/244/6 89/245/6 90/246/6 91/247/6
f 92/248/13 93/249/13 94/250/5 95/251/5
f 96/252/14 97/253/15 88/254/16 98/255/17
f 99/256/18 89/257/19 100/258/20 101/259/21
f 102/260/22 103/261/23 104/262/24 105/263/25
f 105/264/25 106/265/26 107/266/27 102/267/22
f 108/268/28 109/269/28 110/270/29 111/271/29
f 112/272/30 113/273/31 89/274/19 99/275/18
f 114/276/32 115/277/33 116/278/33 92/279/33 95/251/34
f 87/280/35 103/261/35 102/281/36 84/282/36
f 97/283/15 117/284/37 118/285/38 88/286/16
f 90/287/26 89/257/19 113/288/31 119/289/27
f 115/290/39 120/291/39 121/292/39 116/293/39
f 85/294/10 84/295/9 122/296/40 123/297/41
f 96/252/42 112/298/42 99/299/43 97/300/43
f 98/301/44 113/273/44 112/302/45 96/303/45
f 86/304/46 104/305/46 103/306/47 87/243/47
f 109/307/48 80/308/49 79/309/50 110/310/50
f 105/264/25 104/305/24 124/311/51 125/312/52
f 111/313/53 110/314/53 79/309/53 78/315/53
f 91/316/54 126/317/40 98/318/17 88/286/16
f 123/319/6 106/320/6 105/321/6 85/322/6
f 85/294/10 127/323/55 128/324/56 86/325/11
f 84/240/36 102/326/36 107/266/3 122/327/3
f 114/328/57 129/329/57 130/330/57 120/331/57 115/332/57
f 85/333/1 105/334/1 125/335/1 127/336/1
f 130/337/58 93/249/59 121/292/60 120/338/60
f 128/339/5 124/340/5 104/262/46 86/325/46
f 118/341/5 100/342/5 89/343/5 88/344/5
f 131/345/61 108/346/62 111/347/62 78/348/62 83/349/62 82/350/63
f 97/283/43 99/351/43 101/352/1 117/353/1
f 132/354/64 133/355/64 106/356/64 123/357/64
f 119/358/27 107/359/27 106/360/26 90/361/26
f 91/316/41 123/362/41 122/296/40 126/363/40
f 133/364/2 125/365/52 129/366/65 134/367/2
f 128/339/5 95/368/5 94/250/5 124/369/5
f 129/370/65 125/365/52 124/311/51 94/371/66
f 95/372/34 128/373/56 127/374/55 114/375/32
f 82/376/67 81/377/67 135/378/67 136/379/67
f 131/345/1 117/284/1 101/352/1 137/380/1
f 137/381/68 101/382/21 100/258/20 81/383/69
f 82/384/63 118/385/38 117/386/37 131/387/61
f 126/388/3 119/389/3 113/288/44 98/255/44
f 133/390/70 132/391/70 127/392/70 125/393/70
f 100/394/20 138/395/2 135/396/2 81/383/69
f 139/397/71 134/398/71 129/399/71 114/400/71
f 134/401/2 135/402/2 138/403/2 133/404/2
f 90/287/26 106/265/26 133/405/2 138/406/2
f 100/407/72 118/408/72 140/409/72 138/410/72
f 90/411/73 138/412/73 140/409/73 91/247/73
f 141/413/74 142/414/75 135/396/2 134/367/2
f 141/415/76 134/398/76 139/416/76 143/417/76
f 144/418/77 130/419/77 141/420/77 143/417/77
f 80/421/78 142/422/75 145/423/79 79/424/78
f 141/425/74 130/426/80 120/427/80 146/428/81
f 147/429/82 78/430/82 148/431/83 149/432/84
f 143/433/85 150/434/86 115/435/87 144/436/87
f 149/437/88 142/438/88 80/439/88 147/440/88
f 78/441/89 79/442/89 145/423/90 148/443/90
f 150/444/91 146/445/91 120/427/91 115/446/91
f 129/370/65 94/447/66 93/249/59 130/337/58
f 116/448/92 121/449/92 93/249/13 92/248/13
f 137/381/68 81/450/69 80/308/49 109/307/48
f 131/345/1 137/451/1 109/269/28 108/268/28
f 148/452/83 150/453/86 143/454/85 149/455/84
f 142/456/75 141/457/74 146/458/81 145/459/79
f 145/460/90 146/428/91 150/444/91 148/461/90
f 136/462/93 135/463/93 142/464/93 149/465/93
f 151/466/2 152/467/2 153/468/2 154/469/2
f 82/376/63 136/379/94 140/409/94 118/408/38
f 114/400/32 127/392/55 132/391/95 139/397/95
f 149/470/84 143/471/85 139/472/96 136/473/96
f 132/474/97 123/475/41 91/476/41 140/477/97
