# Blender v2.93.0 OBJ File: ''
# www.blender.org
mtllib extinguisher.mtl
o Interior.001_Interior.007
v -3.130977 2.351846 7.237134
v -3.130977 2.781331 7.237134
v -3.198573 2.781331 7.161760
v -3.198573 2.351846 7.161760
v -3.167095 2.351846 7.065534
v -3.167095 2.781331 7.065534
v -3.068021 2.781331 7.044682
v -3.068021 2.351846 7.044682
v -3.000426 2.781331 7.120054
v -3.000426 2.351846 7.120054
v -3.031904 2.351846 7.216281
v -3.031904 2.781331 7.216281
v -3.171826 2.826674 7.156130
v -3.148846 2.826674 7.085883
v -3.027173 2.826674 7.125684
v -3.050153 2.826674 7.195932
v -3.122479 2.826674 7.211155
v -3.076519 2.826674 7.070660
v -3.126528 2.852085 7.110768
v -3.086913 2.852085 7.102431
v -3.059884 2.852085 7.132569
v -3.072471 2.852085 7.171046
v -3.112086 2.852085 7.179385
v -3.139114 2.852085 7.149245
v -3.119066 2.864357 7.119089
v -3.090387 2.864357 7.113052
v -3.070820 2.864357 7.134871
v -3.079932 2.864357 7.162725
v -3.108611 2.864357 7.168763
v -3.128178 2.864357 7.146944
v -3.108769 2.964037 7.130571
v -3.113086 2.964037 7.143766
v -3.103816 2.964037 7.154103
v -3.090230 2.964037 7.151245
v -3.085913 2.964037 7.138049
v -3.095183 2.964037 7.127711
v -3.128178 2.937629 7.146944
v -3.119066 2.937629 7.119089
v -3.070820 2.937629 7.134871
v -3.079932 2.937629 7.162725
v -3.108611 2.937629 7.168763
v -3.090387 2.937629 7.113052
v -3.108769 2.937629 7.130571
v -3.095183 2.937629 7.127711
v -3.113086 2.937629 7.143766
v -3.103816 2.937629 7.154103
v -3.090230 2.937629 7.151245
v -3.085913 2.937629 7.138049
v -3.073318 2.888811 7.162725
v -3.073318 2.913176 7.162725
v -3.065485 2.913176 7.138781
v -3.065485 2.888811 7.138781
v -3.008627 2.857995 7.178255
v -3.004123 2.857995 7.164486
v -2.995173 2.868369 7.167415
v -2.999677 2.868369 7.181182
v -3.028653 2.904722 7.177337
v -3.037314 2.882125 7.174502
v -3.020821 2.904722 7.153391
v -3.029481 2.882125 7.150558
v -3.133441 2.345747 7.244666
v -3.206327 2.345747 7.163393
v -3.208052 2.783813 7.163755
v -3.133989 2.783813 7.246340
v -3.172385 2.345747 7.059635
v -3.065558 2.345747 7.037149
v -3.065010 2.783813 7.035474
v -3.173562 2.783813 7.058321
v -2.992671 2.345747 7.118423
v -2.990946 2.783813 7.118060
v -3.026613 2.345747 7.222180
v -3.025436 2.783813 7.223494
v -3.153980 2.833066 7.080157
v -3.179351 2.833066 7.157713
v -3.045018 2.833066 7.201657
v -3.019648 2.833066 7.124102
v -3.124870 2.833066 7.218463
v -3.074129 2.833066 7.063352
v -3.085646 2.861217 7.098558
v -3.129248 2.861217 7.107736
v -3.055897 2.861217 7.131731
v -3.113353 2.861217 7.183257
v -3.069750 2.861217 7.174079
v -3.143101 2.861217 7.150084
v -3.124357 2.858257 7.113190
v -3.135932 2.858257 7.148575
v -3.111074 2.858257 7.176293
v -3.074642 2.858257 7.168625
v -3.063066 2.858257 7.133239
v -3.087924 2.858257 7.105522
v -3.114059 2.970137 7.124671
v -3.092719 2.970137 7.120181
v -3.078159 2.970137 7.136416
v -3.084939 2.970137 7.157144
v -3.106280 2.970137 7.161634
v -3.120840 2.970137 7.145399
v -3.124357 2.943729 7.113190
v -3.135932 2.943729 7.148575
v -3.074642 2.943729 7.168625
v -3.063066 2.943729 7.133239
v -3.111074 2.943729 7.176293
v -3.087924 2.943729 7.105522
v -3.112406 2.946015 7.126516
v -3.093489 2.946015 7.122534
v -3.118416 2.946015 7.144888
v -3.105510 2.946015 7.159280
v -3.086593 2.946015 7.155300
v -3.080583 2.946015 7.136927
v -3.081037 2.883608 7.166378
v -3.069553 2.883608 7.131272
v -3.068732 2.919486 7.131736
v -3.080101 2.919486 7.166489
v -3.009527 2.849617 7.183640
v -2.993351 2.867981 7.188917
v -2.985499 2.867981 7.164915
v -3.001667 2.849617 7.159610
v -3.026729 2.911113 7.184783
v -3.041724 2.876228 7.181267
v -3.014867 2.911113 7.148522
v -3.029041 2.876228 7.142495
vt 0.617361 0.289787
vt 0.731720 0.289787
vt 0.731720 0.317428
vt 0.617361 0.317428
vt 0.617361 0.345070
vt 0.731720 0.345070
vt 0.731720 0.372712
vt 0.617361 0.372712
vt 0.731720 0.400353
vt 0.617361 0.400353
vt 0.617361 0.427995
vt 0.731720 0.427995
vt 0.731720 0.455636
vt 0.617361 0.455636
vt 0.709204 0.427729
vt 0.717864 0.422729
vt 0.717864 0.412729
vt 0.709204 0.407729
vt 0.700544 0.412729
vt 0.700544 0.422729
vt 0.745817 0.317428
vt 0.745817 0.345070
vt 0.745817 0.400353
vt 0.745817 0.427995
vt 0.745817 0.289787
vt 0.745817 0.372712
vt 0.745817 0.455636
vt 0.756998 0.345070
vt 0.756998 0.372712
vt 0.756998 0.400353
vt 0.756998 0.427995
vt 0.756998 0.455636
vt 0.756998 0.317428
vt 0.756998 0.289787
vt 0.666893 0.432430
vt 0.675553 0.427430
vt 0.675553 0.417430
vt 0.666893 0.412430
vt 0.658233 0.417430
vt 0.658233 0.427430
vt 0.039178 0.042911
vt 0.044228 0.039995
vt 0.044228 0.034163
vt 0.039178 0.031248
vt 0.034128 0.034163
vt 0.034128 0.039995
vt 0.012451 0.042716
vt 0.017501 0.039800
vt 0.017501 0.033968
vt 0.012451 0.031052
vt 0.007400 0.033968
vt 0.007400 0.039800
vt 0.033347 0.031248
vt 0.045010 0.031248
vt 0.045010 0.042911
vt 0.033347 0.042911
vt 0.033347 0.031248
vt 0.045010 0.031248
vt 0.045010 0.042911
vt 0.033347 0.042911
vt 0.033347 0.031248
vt 0.045010 0.031248
vt 0.045010 0.042911
vt 0.033347 0.042911
vt 0.033347 0.031248
vt 0.045010 0.031248
vt 0.045010 0.042911
vt 0.033347 0.042911
vt 0.033347 0.031248
vt 0.045010 0.031248
vt 0.045010 0.042911
vt 0.033347 0.042911
vt 0.033347 0.031248
vt 0.045010 0.031248
vt 0.045010 0.042911
vt 0.033347 0.042911
vt 0.033347 0.031248
vt 0.045010 0.031248
vt 0.033347 0.031248
vt 0.045010 0.031248
vt 0.033347 0.031248
vt 0.045010 0.031248
vt 0.033347 0.031248
vt 0.045010 0.031248
vt 0.033347 0.031248
vt 0.045010 0.031248
vt 0.033347 0.031248
vt 0.045010 0.031248
vt 0.006619 0.031052
vt 0.018283 0.031052
vt 0.018283 0.042716
vt 0.006619 0.042716
vt 0.006619 0.031052
vt 0.018283 0.031052
vt 0.018283 0.042716
vt 0.006619 0.042716
vt 0.006619 0.031052
vt 0.018283 0.031052
vt 0.018283 0.042716
vt 0.006619 0.042716
vt 0.006619 0.031052
vt 0.018283 0.031052
vt 0.018283 0.042716
vt 0.006619 0.042716
vt 0.006619 0.031052
vt 0.018283 0.031052
vt 0.018283 0.042716
vt 0.006619 0.042716
vt 0.006619 0.031052
vt 0.018283 0.031052
vt 0.018283 0.042716
vt 0.006619 0.042716
vt 0.006619 0.031052
vt 0.018283 0.031052
vt 0.018283 0.042716
vt 0.006619 0.042716
vt 0.006619 0.031052
vt 0.018283 0.031052
vt 0.018283 0.042716
vt 0.006619 0.042716
vt 0.006619 0.031052
vt 0.018283 0.031052
vt 0.018283 0.042716
vt 0.006619 0.031052
vt 0.018283 0.031052
vt 0.018283 0.042716
vt 0.006619 0.042716
vt 0.006619 0.031052
vt 0.018283 0.031052
vt 0.006619 0.042716
vt 0.006619 0.031052
vt 0.018283 0.031052
vt 0.018283 0.042716
vt 0.006619 0.042716
vt 0.018283 0.031052
vt 0.018283 0.042716
vt 0.006619 0.042716
vt 0.006619 0.031052
vt 0.018283 0.031052
vt 0.018283 0.042716
vt 0.006619 0.042716
vt 0.006619 0.031052
vt 0.018283 0.042716
vt 0.006619 0.042716
vt 0.006619 0.031052
vt 0.018283 0.031052
vt 0.018283 0.042716
vt 0.006619 0.042716
vt 0.617361 0.289787
vt 0.617361 0.317428
vt 0.731720 0.317428
vt 0.731720 0.289787
vt 0.617361 0.345070
vt 0.617361 0.372712
vt 0.731720 0.372712
vt 0.731720 0.345070
vt 0.617361 0.400353
vt 0.731720 0.400353
vt 0.617361 0.427995
vt 0.617361 0.455636
vt 0.731720 0.455636
vt 0.731720 0.427995
vt 0.709204 0.427729
vt 0.700544 0.422729
vt 0.700544 0.412729
vt 0.709204 0.407729
vt 0.717864 0.412729
vt 0.717864 0.422729
vt 0.745817 0.345070
vt 0.745817 0.317428
vt 0.745817 0.427995
vt 0.745817 0.400353
vt 0.745817 0.289787
vt 0.745817 0.372712
vt 0.745817 0.455636
vt 0.756998 0.372712
vt 0.756998 0.345070
vt 0.756998 0.400353
vt 0.756998 0.455636
vt 0.756998 0.427995
vt 0.756998 0.317428
vt 0.756998 0.289787
vt 0.666893 0.432430
vt 0.658233 0.427430
vt 0.658233 0.417430
vt 0.666893 0.412430
vt 0.675553 0.417430
vt 0.675553 0.427430
vt 0.039178 0.042911
vt 0.034128 0.039995
vt 0.034128 0.034163
vt 0.039178 0.031248
vt 0.044228 0.034163
vt 0.044228 0.039995
vt 0.012451 0.042716
vt 0.007400 0.039800
vt 0.007400 0.033968
vt 0.012451 0.031052
vt 0.017501 0.033968
vt 0.017501 0.039800
vt 0.033347 0.031248
vt 0.033347 0.042911
vt 0.045010 0.042911
vt 0.045010 0.031248
vt 0.033347 0.031248
vt 0.033347 0.042911
vt 0.045010 0.042911
vt 0.045010 0.031248
vt 0.033347 0.031248
vt 0.033347 0.042911
vt 0.045010 0.042911
vt 0.045010 0.031248
vt 0.033347 0.031248
vt 0.033347 0.042911
vt 0.045010 0.042911
vt 0.045010 0.031248
vt 0.033347 0.031248
vt 0.033347 0.042911
vt 0.045010 0.042911
vt 0.045010 0.031248
vt 0.033347 0.031248
vt 0.033347 0.042911
vt 0.045010 0.042911
vt 0.045010 0.031248
vt 0.033347 0.031248
vt 0.045010 0.031248
vt 0.033347 0.031248
vt 0.045010 0.031248
vt 0.033347 0.031248
vt 0.045010 0.031248
vt 0.033347 0.031248
vt 0.045010 0.031248
vt 0.033347 0.031248
vt 0.045010 0.031248
vt 0.033347 0.031248
vt 0.045010 0.031248
vt 0.006619 0.031052
vt 0.006619 0.042716
vt 0.018283 0.042716
vt 0.018283 0.031052
vt 0.006619 0.031052
vt 0.006619 0.042716
vt 0.018283 0.042716
vt 0.018283 0.031052
vt 0.006619 0.031052
vt 0.006619 0.042716
vt 0.018283 0.042716
vt 0.018283 0.031052
vt 0.006619 0.031052
vt 0.006619 0.042716
vt 0.018283 0.042716
vt 0.018283 0.031052
vt 0.006619 0.031052
vt 0.006619 0.042716
vt 0.018283 0.042716
vt 0.018283 0.031052
vt 0.006619 0.031052
vt 0.006619 0.042716
vt 0.018283 0.042716
vt 0.018283 0.031052
vt 0.006619 0.031052
vt 0.006619 0.042716
vt 0.018283 0.042716
vt 0.018283 0.031052
vt 0.006619 0.031052
vt 0.006619 0.042716
vt 0.018283 0.042716
vt 0.018283 0.031052
vt 0.006619 0.031052
vt 0.018283 0.042716
vt 0.018283 0.031052
vt 0.006619 0.031052
vt 0.006619 0.042716
vt 0.018283 0.042716
vt 0.018283 0.031052
vt 0.006619 0.031052
vt 0.006619 0.042716
vt 0.018283 0.031052
vt 0.006619 0.031052
vt 0.006619 0.042716
vt 0.018283 0.042716
vt 0.018283 0.031052
vt 0.006619 0.042716
vt 0.018283 0.042716
vt 0.018283 0.031052
vt 0.006619 0.031052
vt 0.006619 0.042716
vt 0.018283 0.042716
vt 0.018283 0.031052
vt 0.006619 0.031052
vt 0.006619 0.042716
vt 0.018283 0.042716
vt 0.006619 0.031052
vt 0.006619 0.042716
vt 0.018283 0.042716
vt 0.018283 0.031052
vn -0.7445 0.0000 0.6677
vn -0.2060 0.0000 -0.9786
vn 0.7445 0.0000 -0.6677
vn 0.2060 0.0000 0.9786
vn -0.9504 0.0000 -0.3109
vn 0.9504 0.0000 0.3109
vn 0.0000 -1.0000 0.0000
vn -0.8425 0.4628 -0.2756
vn 0.8425 0.4628 0.2756
vn -0.6600 0.4628 0.5919
vn -0.1826 0.4628 -0.8675
vn 0.6600 0.4628 -0.5918
vn 0.1826 0.4628 0.8675
vn -0.1359 0.7515 -0.6455
vn 0.4911 0.7515 -0.4404
vn 0.1359 0.7515 0.6455
vn -0.6270 0.7515 -0.2051
vn 0.6270 0.7515 0.2051
vn -0.4911 0.7515 0.4404
vn 0.0000 1.0000 -0.0000
vn -0.7445 0.0000 0.6676
vn 0.7445 0.0000 -0.6676
vn -0.2060 0.0000 -0.9785
vn -0.9504 0.0000 -0.3110
vn 0.2059 0.0000 0.9786
vn 0.7038 -0.6721 0.2302
vn -0.1975 -0.0654 0.9781
vn 0.7456 0.6201 0.2439
vn 0.4188 -0.0654 -0.9057
vn -0.6150 -0.7624 -0.2012
vn -0.1652 -0.9848 -0.0540
vn 0.3109 0.0000 -0.9504
vn 0.1683 0.9842 0.0551
vn -0.3109 -0.0000 0.9504
vn 0.7445 0.0035 -0.6676
vn 0.2060 0.0035 0.9786
vn -0.7445 0.0035 0.6677
vn -0.2060 0.0035 -0.9786
vn 0.9504 0.0035 0.3109
vn -0.9504 0.0035 -0.3109
vn 0.8447 -0.4583 0.2763
vn -0.8447 -0.4584 -0.2763
vn 0.6617 -0.4584 -0.5934
vn 0.1831 -0.4584 0.8697
vn -0.6617 -0.4584 0.5934
vn -0.1830 -0.4584 -0.8697
vn 0.1358 -0.7516 0.6454
vn -0.4910 -0.7516 0.4404
vn -0.1359 -0.7516 -0.6454
vn 0.6269 -0.7516 0.2051
vn -0.6269 -0.7516 -0.2051
vn 0.4910 -0.7516 -0.4404
vn 0.0300 -0.9893 0.1428
vn 0.1387 -0.9893 0.0454
vn 0.1086 -0.9893 -0.0974
vn -0.0300 -0.9893 -0.1428
vn -0.1386 -0.9893 -0.0453
vn -0.1086 -0.9893 0.0974
vn 0.2052 0.0886 0.9747
vn 0.9467 0.0886 0.3097
vn 0.7416 0.0886 -0.6650
vn -0.2051 0.0886 -0.9747
vn -0.9467 0.0886 -0.3097
vn -0.7416 0.0886 0.6650
vn 0.9501 -0.0257 0.3108
vn -0.6972 0.6797 -0.2281
vn 0.1666 0.0649 -0.9839
vn -0.7548 -0.6078 -0.2469
vn -0.4471 0.0649 0.8921
vn 0.6152 0.7623 0.2012
vn 0.1645 0.9849 0.0538
vn -0.2885 -0.0267 0.9571
vn -0.1395 -0.9892 -0.0456
vn 0.3329 -0.0267 -0.9426
usemtl InteriorMat
s off
f 1/1/1 2/2/1 3/3/1 4/4/1
f 5/5/2 6/6/2 7/7/2 8/8/2
f 8/8/3 7/7/3 9/9/3 10/10/3
f 11/11/4 12/12/4 2/13/4 1/14/4
f 4/4/5 3/3/5 6/6/5 5/5/5
f 10/10/6 9/9/6 12/12/6 11/11/6
f 5/15/7 8/16/7 10/17/7 11/18/7 1/19/7 4/20/7
f 6/6/8 3/3/8 13/21/8 14/22/8
f 12/12/9 9/9/9 15/23/9 16/24/9
f 3/3/10 2/2/10 17/25/10 13/21/10
f 7/7/11 6/6/11 14/22/11 18/26/11
f 9/9/12 7/7/12 18/26/12 15/23/12
f 2/13/13 12/12/13 16/24/13 17/27/13
f 18/26/14 14/22/14 19/28/14 20/29/14
f 15/23/15 18/26/15 20/29/15 21/30/15
f 17/27/16 16/24/16 22/31/16 23/32/16
f 14/22/17 13/21/17 24/33/17 19/28/17
f 16/24/18 15/23/18 21/30/18 22/31/18
f 13/21/19 17/25/19 23/34/19 24/33/19
f 19/35/20 24/36/20 23/37/20 22/38/20 21/39/20 20/40/20
f 25/41/7 26/42/7 27/43/7 28/44/7 29/45/7 30/46/7
f 31/47/20 32/48/20 33/49/20 34/50/20 35/51/20 36/52/20
f 25/53/5 30/54/5 37/55/5 38/56/5
f 28/57/6 27/58/6 39/59/6 40/60/6
f 30/61/21 29/62/21 41/63/21 37/64/21
f 26/65/2 25/66/2 38/67/2 42/68/2
f 27/69/22 26/70/22 42/71/22 39/72/22
f 29/73/4 28/74/4 40/75/4 41/76/4
f 43/77/20 44/78/20 42/71/20 38/56/20
f 45/79/20 43/80/20 38/67/20 37/64/20
f 46/81/20 45/82/20 37/55/20 41/76/20
f 47/83/20 46/84/20 41/63/20 40/60/20
f 48/85/20 47/86/20 40/75/20 39/72/20
f 44/87/20 48/88/20 39/59/20 42/68/20
f 31/89/23 36/90/23 44/91/23 43/92/23
f 32/93/24 31/94/24 43/95/24 45/96/24
f 33/97/21 32/98/21 45/99/21 46/100/21
f 34/101/25 33/102/25 46/103/25 47/104/25
f 35/105/6 34/106/6 47/107/6 48/108/6
f 36/109/22 35/110/22 48/111/22 44/112/22
f 49/113/5 50/114/5 51/115/5 52/116/5
f 53/117/26 54/118/26 55/119/26 56/120/26
f 57/121/27 58/122/27 53/123/27 56/120/27
f 59/124/28 57/125/28 56/126/28 55/127/28
f 60/128/29 59/129/29 55/119/29 54/130/29
f 58/131/30 60/132/30 54/133/30 53/134/30
f 49/113/31 52/135/31 60/136/31 58/137/31
f 52/138/32 51/139/32 59/140/32 60/141/32
f 51/142/33 50/114/33 57/143/33 59/144/33
f 50/145/34 49/146/34 58/147/34 57/148/34
f 61/149/35 62/150/35 63/151/35 64/152/35
f 65/153/36 66/154/36 67/155/36 68/156/36
f 66/154/37 69/157/37 70/158/37 67/155/37
f 71/159/38 61/160/38 64/161/38 72/162/38
f 62/150/39 65/153/39 68/156/39 63/151/39
f 69/157/40 71/159/40 72/162/40 70/158/40
f 65/163/20 62/164/20 61/165/20 71/166/20 69/167/20 66/168/20
f 68/156/41 73/169/41 74/170/41 63/151/41
f 72/162/42 75/171/42 76/172/42 70/158/42
f 63/151/43 74/170/43 77/173/43 64/152/43
f 67/155/44 78/174/44 73/169/44 68/156/44
f 70/158/45 76/172/45 78/174/45 67/155/45
f 64/161/46 77/175/46 75/171/46 72/162/46
f 78/174/47 79/176/47 80/177/47 73/169/47
f 76/172/48 81/178/48 79/176/48 78/174/48
f 77/175/49 82/179/49 83/180/49 75/171/49
f 73/169/50 80/177/50 84/181/50 74/170/50
f 75/171/51 83/180/51 81/178/51 76/172/51
f 74/170/52 84/181/52 82/182/52 77/173/52
f 80/183/7 79/184/7 81/185/7 83/186/7 82/187/7 84/188/7
f 85/189/20 86/190/20 87/191/20 88/192/20 89/193/20 90/194/20
f 91/195/7 92/196/7 93/197/7 94/198/7 95/199/7 96/200/7
f 85/201/6 97/202/6 98/203/6 86/204/6
f 88/205/5 99/206/5 100/207/5 89/208/5
f 86/209/3 98/210/3 101/211/3 87/212/3
f 90/213/4 102/214/4 97/215/4 85/216/4
f 89/217/1 100/218/1 102/219/1 90/220/1
f 87/221/2 101/222/2 99/223/2 88/224/2
f 103/225/53 97/202/53 102/219/53 104/226/53
f 105/227/54 98/210/54 97/215/54 103/228/54
f 106/229/55 101/222/55 98/203/55 105/230/55
f 107/231/56 99/206/56 101/211/56 106/232/56
f 108/233/57 100/218/57 99/223/57 107/234/57
f 104/235/58 102/214/58 100/207/58 108/236/58
f 91/237/59 103/238/59 104/239/59 92/240/59
f 96/241/60 105/242/60 103/243/60 91/244/60
f 95/245/61 106/246/61 105/247/61 96/248/61
f 94/249/62 107/250/62 106/251/62 95/252/62
f 93/253/63 108/254/63 107/255/63 94/256/63
f 92/257/64 104/258/64 108/259/64 93/260/64
f 109/261/65 110/262/65 111/263/65 112/264/65
f 113/265/66 114/266/66 115/267/66 116/268/66
f 117/269/67 114/266/67 113/270/67 118/271/67
f 119/272/68 115/273/68 114/274/68 117/275/68
f 120/276/69 116/277/69 115/267/69 119/278/69
f 118/279/70 113/280/70 116/281/70 120/282/70
f 109/261/71 118/283/71 120/284/71 110/285/71
f 110/286/72 120/287/72 119/288/72 111/289/72
f 111/290/73 119/291/73 117/292/73 112/264/73
f 112/293/74 117/294/74 118/295/74 109/296/74
